<mxfile host="Oac">
  <diagram id="Iqr" name="navy">
    <mxGraphModel dx="0" dy="0" background="#000080" grid="0" gridSize="10" guides="1" tooltips="1" connect="1" arrows="1" fold="1" page="1" pageScale="1" pageWidth="1169" pageHeight="827" math="0" shadow="0">
      <root>
        <mxCell id="page_root_Iqr" parent="Iqr"/>
        <mxCell id="node_root_Iqr" parent="page_root_Iqr"/>
        <mxCell id="Iqr-2" value="navy" style="whiteSpace=wrap;html=1;fontColor=#FFFFFF;text;fontSize=89;fontStyle=1;fillColor=none" vertex="1" parent="node_root_Iqr">
          <mxGeometry x="200" y="35" width="100" height="50" as="geometry"/>
        </mxCell>
        <mxCell id="Iqr-3" value="navy" style="whiteSpace=wrap;html=1;fontColor=#FFFFFF;text;fontSize=21;fontStyle=1;fillColor=none" vertex="1" parent="node_root_Iqr">
          <mxGeometry x="700" y="35" width="100" height="50" as="geometry"/>
        </mxCell>
        <mxCell id="Iqr-4" value="navy" style="whiteSpace=wrap;html=1;fontColor=#FFFFFF;text;fontSize=67;fontStyle=1;fillColor=none" vertex="1" parent="node_root_Iqr">
          <mxGeometry x="200" y="155" width="100" height="50" as="geometry"/>
        </mxCell>
        <mxCell id="Iqr-5" value="navy" style="whiteSpace=wrap;html=1;fontColor=#FFFFFF;text;fontSize=28;fontStyle=1;fillColor=none" vertex="1" parent="node_root_Iqr">
          <mxGeometry x="700" y="155" width="100" height="50" as="geometry"/>
        </mxCell>
        <mxCell id="Iqr-6" value="navy" style="whiteSpace=wrap;html=1;fontColor=#FFFFFF;text;fontSize=50;fontStyle=1;fillColor=none" vertex="1" parent="node_root_Iqr">
          <mxGeometry x="200" y="275" width="100" height="50" as="geometry"/>
        </mxCell>
        <mxCell id="Iqr-7" value="navy" style="whiteSpace=wrap;html=1;fontColor=#FFFFFF;text;fontSize=37;fontStyle=1;fillColor=none" vertex="1" parent="node_root_Iqr">
          <mxGeometry x="700" y="275" width="100" height="50" as="geometry"/>
        </mxCell>
        <mxCell id="Iqr-8" value="navy" style="whiteSpace=wrap;html=1;fontColor=#FFFFFF;text;fontSize=16;fontStyle=1;fillColor=none" vertex="1" parent="node_root_Iqr">
          <mxGeometry x="200" y="395" width="100" height="50" as="geometry"/>
        </mxCell>
        <mxCell id="Iqr-9" value="" style="whiteSpace=wrap;html=1;fillColor=#ffffff;strokeColor=#000000;fontColor=#000000" vertex="1" parent="node_root_Iqr">
          <mxGeometry x="705" y="375" width="90" height="90" as="geometry"/>
        </mxCell>
        <mxCell id="Iqr-11" value="" style="whiteSpace=wrap;html=1;fillColor=#ffffff;strokeColor=#000000;fontColor=#000000" vertex="1" parent="node_root_Iqr">
          <mxGeometry x="25" y="485" width="90" height="90" as="geometry"/>
        </mxCell>
        <mxCell id="Iqr-12" value="" style="whiteSpace=wrap;html=1;fillColor=#ffffff;strokeColor=#000000;fontColor=#000000;ellipse" vertex="1" parent="node_root_Iqr">
          <mxGeometry x="165" y="485" width="90" height="90" as="geometry"/>
        </mxCell>
        <mxCell id="Iqr-13" value="" style="whiteSpace=wrap;html=1;fillColor=#ffffff;strokeColor=#000000;fontColor=#000000;shape=actor" vertex="1" parent="node_root_Iqr">
          <mxGeometry x="305" y="485" width="90" height="90" as="geometry"/>
        </mxCell>
        <mxCell id="Iqr-14" value="" style="whiteSpace=wrap;html=1;fillColor=#ffffff;strokeColor=#000000;fontColor=#000000;verticalLabelPosition=bottom;verticalAlign=top;shape=mxgraph.basic.tick" vertex="1" parent="node_root_Iqr">
          <mxGeometry x="445" y="485" width="90" height="90" as="geometry"/>
        </mxCell>
        <mxCell id="Iqr-15" value="" style="whiteSpace=wrap;html=1;fillColor=#ffffff;strokeColor=#000000;fontColor=#000000;verticalLabelPosition=bottom;verticalAlign=top;html=1;shape=mxgraph.basic.x" vertex="1" parent="node_root_Iqr">
          <mxGeometry x="585" y="485" width="90" height="90" as="geometry"/>
        </mxCell>
        <mxCell id="Iqr-16" value="" style="whiteSpace=wrap;html=1;fillColor=#ffffff;strokeColor=#000000;fontColor=#000000;shape=cloud" vertex="1" parent="node_root_Iqr">
          <mxGeometry x="725" y="485" width="90" height="90" as="geometry"/>
        </mxCell>
      </root>
    </mxGraphModel>
  </diagram>
  <diagram id="WrK" name="dark_blue">
    <mxGraphModel dx="0" dy="0" background="#00008B" grid="0" gridSize="10" guides="1" tooltips="1" connect="1" arrows="1" fold="1" page="1" pageScale="1" pageWidth="1169" pageHeight="827" math="0" shadow="0">
      <root>
        <mxCell id="page_root_WrK" parent="WrK"/>
        <mxCell id="node_root_WrK" parent="page_root_WrK"/>
        <mxCell id="WrK-2" value="dark_blue" style="whiteSpace=wrap;html=1;fontColor=#FFFFFF;text;fontSize=89;fontStyle=1;fillColor=none" vertex="1" parent="node_root_WrK">
          <mxGeometry x="200" y="35" width="100" height="50" as="geometry"/>
        </mxCell>
        <mxCell id="WrK-3" value="dark_blue" style="whiteSpace=wrap;html=1;fontColor=#FFFFFF;text;fontSize=21;fontStyle=1;fillColor=none" vertex="1" parent="node_root_WrK">
          <mxGeometry x="700" y="35" width="100" height="50" as="geometry"/>
        </mxCell>
        <mxCell id="WrK-4" value="dark_blue" style="whiteSpace=wrap;html=1;fontColor=#FFFFFF;text;fontSize=67;fontStyle=1;fillColor=none" vertex="1" parent="node_root_WrK">
          <mxGeometry x="200" y="155" width="100" height="50" as="geometry"/>
        </mxCell>
        <mxCell id="WrK-5" value="dark_blue" style="whiteSpace=wrap;html=1;fontColor=#FFFFFF;text;fontSize=28;fontStyle=1;fillColor=none" vertex="1" parent="node_root_WrK">
          <mxGeometry x="700" y="155" width="100" height="50" as="geometry"/>
        </mxCell>
        <mxCell id="WrK-6" value="dark_blue" style="whiteSpace=wrap;html=1;fontColor=#FFFFFF;text;fontSize=50;fontStyle=1;fillColor=none" vertex="1" parent="node_root_WrK">
          <mxGeometry x="200" y="275" width="100" height="50" as="geometry"/>
        </mxCell>
        <mxCell id="WrK-7" value="dark_blue" style="whiteSpace=wrap;html=1;fontColor=#FFFFFF;text;fontSize=37;fontStyle=1;fillColor=none" vertex="1" parent="node_root_WrK">
          <mxGeometry x="700" y="275" width="100" height="50" as="geometry"/>
        </mxCell>
        <mxCell id="WrK-8" value="dark_blue" style="whiteSpace=wrap;html=1;fontColor=#FFFFFF;text;fontSize=16;fontStyle=1;fillColor=none" vertex="1" parent="node_root_WrK">
          <mxGeometry x="200" y="395" width="100" height="50" as="geometry"/>
        </mxCell>
        <mxCell id="WrK-9" value="" style="whiteSpace=wrap;html=1;fillColor=#ffffff;strokeColor=#000000;fontColor=#000000" vertex="1" parent="node_root_WrK">
          <mxGeometry x="705" y="375" width="90" height="90" as="geometry"/>
        </mxCell>
        <mxCell id="WrK-11" value="" style="whiteSpace=wrap;html=1;fillColor=#ffffff;strokeColor=#000000;fontColor=#000000" vertex="1" parent="node_root_WrK">
          <mxGeometry x="25" y="485" width="90" height="90" as="geometry"/>
        </mxCell>
        <mxCell id="WrK-12" value="" style="whiteSpace=wrap;html=1;fillColor=#ffffff;strokeColor=#000000;fontColor=#000000;ellipse" vertex="1" parent="node_root_WrK">
          <mxGeometry x="165" y="485" width="90" height="90" as="geometry"/>
        </mxCell>
        <mxCell id="WrK-13" value="" style="whiteSpace=wrap;html=1;fillColor=#ffffff;strokeColor=#000000;fontColor=#000000;shape=actor" vertex="1" parent="node_root_WrK">
          <mxGeometry x="305" y="485" width="90" height="90" as="geometry"/>
        </mxCell>
        <mxCell id="WrK-14" value="" style="whiteSpace=wrap;html=1;fillColor=#ffffff;strokeColor=#000000;fontColor=#000000;verticalLabelPosition=bottom;verticalAlign=top;shape=mxgraph.basic.tick" vertex="1" parent="node_root_WrK">
          <mxGeometry x="445" y="485" width="90" height="90" as="geometry"/>
        </mxCell>
        <mxCell id="WrK-15" value="" style="whiteSpace=wrap;html=1;fillColor=#ffffff;strokeColor=#000000;fontColor=#000000;verticalLabelPosition=bottom;verticalAlign=top;html=1;shape=mxgraph.basic.x" vertex="1" parent="node_root_WrK">
          <mxGeometry x="585" y="485" width="90" height="90" as="geometry"/>
        </mxCell>
        <mxCell id="WrK-16" value="" style="whiteSpace=wrap;html=1;fillColor=#ffffff;strokeColor=#000000;fontColor=#000000;shape=cloud" vertex="1" parent="node_root_WrK">
          <mxGeometry x="725" y="485" width="90" height="90" as="geometry"/>
        </mxCell>
      </root>
    </mxGraphModel>
  </diagram>
  <diagram id="MjI" name="medium_blue">
    <mxGraphModel dx="0" dy="0" background="#0000CD" grid="0" gridSize="10" guides="1" tooltips="1" connect="1" arrows="1" fold="1" page="1" pageScale="1" pageWidth="1169" pageHeight="827" math="0" shadow="0">
      <root>
        <mxCell id="page_root_MjI" parent="MjI"/>
        <mxCell id="node_root_MjI" parent="page_root_MjI"/>
        <mxCell id="MjI-2" value="medium_blue" style="whiteSpace=wrap;html=1;fontColor=#FFFFFF;text;fontSize=89;fontStyle=1;fillColor=none" vertex="1" parent="node_root_MjI">
          <mxGeometry x="200" y="35" width="100" height="50" as="geometry"/>
        </mxCell>
        <mxCell id="MjI-3" value="medium_blue" style="whiteSpace=wrap;html=1;fontColor=#FFFFFF;text;fontSize=21;fontStyle=1;fillColor=none" vertex="1" parent="node_root_MjI">
          <mxGeometry x="700" y="35" width="100" height="50" as="geometry"/>
        </mxCell>
        <mxCell id="MjI-4" value="medium_blue" style="whiteSpace=wrap;html=1;fontColor=#FFFFFF;text;fontSize=67;fontStyle=1;fillColor=none" vertex="1" parent="node_root_MjI">
          <mxGeometry x="200" y="155" width="100" height="50" as="geometry"/>
        </mxCell>
        <mxCell id="MjI-5" value="medium_blue" style="whiteSpace=wrap;html=1;fontColor=#FFFFFF;text;fontSize=28;fontStyle=1;fillColor=none" vertex="1" parent="node_root_MjI">
          <mxGeometry x="700" y="155" width="100" height="50" as="geometry"/>
        </mxCell>
        <mxCell id="MjI-6" value="medium_blue" style="whiteSpace=wrap;html=1;fontColor=#FFFFFF;text;fontSize=50;fontStyle=1;fillColor=none" vertex="1" parent="node_root_MjI">
          <mxGeometry x="200" y="275" width="100" height="50" as="geometry"/>
        </mxCell>
        <mxCell id="MjI-7" value="medium_blue" style="whiteSpace=wrap;html=1;fontColor=#FFFFFF;text;fontSize=37;fontStyle=1;fillColor=none" vertex="1" parent="node_root_MjI">
          <mxGeometry x="700" y="275" width="100" height="50" as="geometry"/>
        </mxCell>
        <mxCell id="MjI-8" value="medium_blue" style="whiteSpace=wrap;html=1;fontColor=#FFFFFF;text;fontSize=16;fontStyle=1;fillColor=none" vertex="1" parent="node_root_MjI">
          <mxGeometry x="200" y="395" width="100" height="50" as="geometry"/>
        </mxCell>
        <mxCell id="MjI-9" value="" style="whiteSpace=wrap;html=1;fillColor=#ffffff;strokeColor=#000000;fontColor=#000000" vertex="1" parent="node_root_MjI">
          <mxGeometry x="705" y="375" width="90" height="90" as="geometry"/>
        </mxCell>
        <mxCell id="MjI-11" value="" style="whiteSpace=wrap;html=1;fillColor=#ffffff;strokeColor=#000000;fontColor=#000000" vertex="1" parent="node_root_MjI">
          <mxGeometry x="25" y="485" width="90" height="90" as="geometry"/>
        </mxCell>
        <mxCell id="MjI-12" value="" style="whiteSpace=wrap;html=1;fillColor=#ffffff;strokeColor=#000000;fontColor=#000000;ellipse" vertex="1" parent="node_root_MjI">
          <mxGeometry x="165" y="485" width="90" height="90" as="geometry"/>
        </mxCell>
        <mxCell id="MjI-13" value="" style="whiteSpace=wrap;html=1;fillColor=#ffffff;strokeColor=#000000;fontColor=#000000;shape=actor" vertex="1" parent="node_root_MjI">
          <mxGeometry x="305" y="485" width="90" height="90" as="geometry"/>
        </mxCell>
        <mxCell id="MjI-14" value="" style="whiteSpace=wrap;html=1;fillColor=#ffffff;strokeColor=#000000;fontColor=#000000;verticalLabelPosition=bottom;verticalAlign=top;shape=mxgraph.basic.tick" vertex="1" parent="node_root_MjI">
          <mxGeometry x="445" y="485" width="90" height="90" as="geometry"/>
        </mxCell>
        <mxCell id="MjI-15" value="" style="whiteSpace=wrap;html=1;fillColor=#ffffff;strokeColor=#000000;fontColor=#000000;verticalLabelPosition=bottom;verticalAlign=top;html=1;shape=mxgraph.basic.x" vertex="1" parent="node_root_MjI">
          <mxGeometry x="585" y="485" width="90" height="90" as="geometry"/>
        </mxCell>
        <mxCell id="MjI-16" value="" style="whiteSpace=wrap;html=1;fillColor=#ffffff;strokeColor=#000000;fontColor=#000000;shape=cloud" vertex="1" parent="node_root_MjI">
          <mxGeometry x="725" y="485" width="90" height="90" as="geometry"/>
        </mxCell>
      </root>
    </mxGraphModel>
  </diagram>
  <diagram id="8CL" name="blue">
    <mxGraphModel dx="0" dy="0" background="#0000FF" grid="0" gridSize="10" guides="1" tooltips="1" connect="1" arrows="1" fold="1" page="1" pageScale="1" pageWidth="1169" pageHeight="827" math="0" shadow="0">
      <root>
        <mxCell id="page_root_8CL" parent="8CL"/>
        <mxCell id="node_root_8CL" parent="page_root_8CL"/>
        <mxCell id="8CL-2" value="blue" style="whiteSpace=wrap;html=1;fontColor=#FFFFFF;text;fontSize=89;fontStyle=1;fillColor=none" vertex="1" parent="node_root_8CL">
          <mxGeometry x="200" y="35" width="100" height="50" as="geometry"/>
        </mxCell>
        <mxCell id="8CL-3" value="blue" style="whiteSpace=wrap;html=1;fontColor=#FFFFFF;text;fontSize=21;fontStyle=1;fillColor=none" vertex="1" parent="node_root_8CL">
          <mxGeometry x="700" y="35" width="100" height="50" as="geometry"/>
        </mxCell>
        <mxCell id="8CL-4" value="blue" style="whiteSpace=wrap;html=1;fontColor=#FFFFFF;text;fontSize=67;fontStyle=1;fillColor=none" vertex="1" parent="node_root_8CL">
          <mxGeometry x="200" y="155" width="100" height="50" as="geometry"/>
        </mxCell>
        <mxCell id="8CL-5" value="blue" style="whiteSpace=wrap;html=1;fontColor=#FFFFFF;text;fontSize=28;fontStyle=1;fillColor=none" vertex="1" parent="node_root_8CL">
          <mxGeometry x="700" y="155" width="100" height="50" as="geometry"/>
        </mxCell>
        <mxCell id="8CL-6" value="blue" style="whiteSpace=wrap;html=1;fontColor=#FFFFFF;text;fontSize=50;fontStyle=1;fillColor=none" vertex="1" parent="node_root_8CL">
          <mxGeometry x="200" y="275" width="100" height="50" as="geometry"/>
        </mxCell>
        <mxCell id="8CL-7" value="blue" style="whiteSpace=wrap;html=1;fontColor=#FFFFFF;text;fontSize=37;fontStyle=1;fillColor=none" vertex="1" parent="node_root_8CL">
          <mxGeometry x="700" y="275" width="100" height="50" as="geometry"/>
        </mxCell>
        <mxCell id="8CL-8" value="blue" style="whiteSpace=wrap;html=1;fontColor=#FFFFFF;text;fontSize=16;fontStyle=1;fillColor=none" vertex="1" parent="node_root_8CL">
          <mxGeometry x="200" y="395" width="100" height="50" as="geometry"/>
        </mxCell>
        <mxCell id="8CL-9" value="" style="whiteSpace=wrap;html=1;fillColor=#ffffff;strokeColor=#000000;fontColor=#000000" vertex="1" parent="node_root_8CL">
          <mxGeometry x="705" y="375" width="90" height="90" as="geometry"/>
        </mxCell>
        <mxCell id="8CL-11" value="" style="whiteSpace=wrap;html=1;fillColor=#ffffff;strokeColor=#000000;fontColor=#000000" vertex="1" parent="node_root_8CL">
          <mxGeometry x="25" y="485" width="90" height="90" as="geometry"/>
        </mxCell>
        <mxCell id="8CL-12" value="" style="whiteSpace=wrap;html=1;fillColor=#ffffff;strokeColor=#000000;fontColor=#000000;ellipse" vertex="1" parent="node_root_8CL">
          <mxGeometry x="165" y="485" width="90" height="90" as="geometry"/>
        </mxCell>
        <mxCell id="8CL-13" value="" style="whiteSpace=wrap;html=1;fillColor=#ffffff;strokeColor=#000000;fontColor=#000000;shape=actor" vertex="1" parent="node_root_8CL">
          <mxGeometry x="305" y="485" width="90" height="90" as="geometry"/>
        </mxCell>
        <mxCell id="8CL-14" value="" style="whiteSpace=wrap;html=1;fillColor=#ffffff;strokeColor=#000000;fontColor=#000000;verticalLabelPosition=bottom;verticalAlign=top;shape=mxgraph.basic.tick" vertex="1" parent="node_root_8CL">
          <mxGeometry x="445" y="485" width="90" height="90" as="geometry"/>
        </mxCell>
        <mxCell id="8CL-15" value="" style="whiteSpace=wrap;html=1;fillColor=#ffffff;strokeColor=#000000;fontColor=#000000;verticalLabelPosition=bottom;verticalAlign=top;html=1;shape=mxgraph.basic.x" vertex="1" parent="node_root_8CL">
          <mxGeometry x="585" y="485" width="90" height="90" as="geometry"/>
        </mxCell>
        <mxCell id="8CL-16" value="" style="whiteSpace=wrap;html=1;fillColor=#ffffff;strokeColor=#000000;fontColor=#000000;shape=cloud" vertex="1" parent="node_root_8CL">
          <mxGeometry x="725" y="485" width="90" height="90" as="geometry"/>
        </mxCell>
      </root>
    </mxGraphModel>
  </diagram>
  <diagram id="9T4" name="dark_green">
    <mxGraphModel dx="0" dy="0" background="#006400" grid="0" gridSize="10" guides="1" tooltips="1" connect="1" arrows="1" fold="1" page="1" pageScale="1" pageWidth="1169" pageHeight="827" math="0" shadow="0">
      <root>
        <mxCell id="page_root_9T4" parent="9T4"/>
        <mxCell id="node_root_9T4" parent="page_root_9T4"/>
        <mxCell id="9T4-2" value="dark_green" style="whiteSpace=wrap;html=1;fontColor=#FFFFFF;text;fontSize=89;fontStyle=1;fillColor=none" vertex="1" parent="node_root_9T4">
          <mxGeometry x="200" y="35" width="100" height="50" as="geometry"/>
        </mxCell>
        <mxCell id="9T4-3" value="dark_green" style="whiteSpace=wrap;html=1;fontColor=#FFFFFF;text;fontSize=21;fontStyle=1;fillColor=none" vertex="1" parent="node_root_9T4">
          <mxGeometry x="700" y="35" width="100" height="50" as="geometry"/>
        </mxCell>
        <mxCell id="9T4-4" value="dark_green" style="whiteSpace=wrap;html=1;fontColor=#FFFFFF;text;fontSize=67;fontStyle=1;fillColor=none" vertex="1" parent="node_root_9T4">
          <mxGeometry x="200" y="155" width="100" height="50" as="geometry"/>
        </mxCell>
        <mxCell id="9T4-5" value="dark_green" style="whiteSpace=wrap;html=1;fontColor=#FFFFFF;text;fontSize=28;fontStyle=1;fillColor=none" vertex="1" parent="node_root_9T4">
          <mxGeometry x="700" y="155" width="100" height="50" as="geometry"/>
        </mxCell>
        <mxCell id="9T4-6" value="dark_green" style="whiteSpace=wrap;html=1;fontColor=#FFFFFF;text;fontSize=50;fontStyle=1;fillColor=none" vertex="1" parent="node_root_9T4">
          <mxGeometry x="200" y="275" width="100" height="50" as="geometry"/>
        </mxCell>
        <mxCell id="9T4-7" value="dark_green" style="whiteSpace=wrap;html=1;fontColor=#FFFFFF;text;fontSize=37;fontStyle=1;fillColor=none" vertex="1" parent="node_root_9T4">
          <mxGeometry x="700" y="275" width="100" height="50" as="geometry"/>
        </mxCell>
        <mxCell id="9T4-8" value="dark_green" style="whiteSpace=wrap;html=1;fontColor=#FFFFFF;text;fontSize=16;fontStyle=1;fillColor=none" vertex="1" parent="node_root_9T4">
          <mxGeometry x="200" y="395" width="100" height="50" as="geometry"/>
        </mxCell>
        <mxCell id="9T4-9" value="" style="whiteSpace=wrap;html=1;fillColor=#ffffff;strokeColor=#000000;fontColor=#000000" vertex="1" parent="node_root_9T4">
          <mxGeometry x="705" y="375" width="90" height="90" as="geometry"/>
        </mxCell>
        <mxCell id="9T4-11" value="" style="whiteSpace=wrap;html=1;fillColor=#ffffff;strokeColor=#000000;fontColor=#000000" vertex="1" parent="node_root_9T4">
          <mxGeometry x="25" y="485" width="90" height="90" as="geometry"/>
        </mxCell>
        <mxCell id="9T4-12" value="" style="whiteSpace=wrap;html=1;fillColor=#ffffff;strokeColor=#000000;fontColor=#000000;ellipse" vertex="1" parent="node_root_9T4">
          <mxGeometry x="165" y="485" width="90" height="90" as="geometry"/>
        </mxCell>
        <mxCell id="9T4-13" value="" style="whiteSpace=wrap;html=1;fillColor=#ffffff;strokeColor=#000000;fontColor=#000000;shape=actor" vertex="1" parent="node_root_9T4">
          <mxGeometry x="305" y="485" width="90" height="90" as="geometry"/>
        </mxCell>
        <mxCell id="9T4-14" value="" style="whiteSpace=wrap;html=1;fillColor=#ffffff;strokeColor=#000000;fontColor=#000000;verticalLabelPosition=bottom;verticalAlign=top;shape=mxgraph.basic.tick" vertex="1" parent="node_root_9T4">
          <mxGeometry x="445" y="485" width="90" height="90" as="geometry"/>
        </mxCell>
        <mxCell id="9T4-15" value="" style="whiteSpace=wrap;html=1;fillColor=#ffffff;strokeColor=#000000;fontColor=#000000;verticalLabelPosition=bottom;verticalAlign=top;html=1;shape=mxgraph.basic.x" vertex="1" parent="node_root_9T4">
          <mxGeometry x="585" y="485" width="90" height="90" as="geometry"/>
        </mxCell>
        <mxCell id="9T4-16" value="" style="whiteSpace=wrap;html=1;fillColor=#ffffff;strokeColor=#000000;fontColor=#000000;shape=cloud" vertex="1" parent="node_root_9T4">
          <mxGeometry x="725" y="485" width="90" height="90" as="geometry"/>
        </mxCell>
      </root>
    </mxGraphModel>
  </diagram>
  <diagram id="X4m" name="green">
    <mxGraphModel dx="0" dy="0" background="#008000" grid="0" gridSize="10" guides="1" tooltips="1" connect="1" arrows="1" fold="1" page="1" pageScale="1" pageWidth="1169" pageHeight="827" math="0" shadow="0">
      <root>
        <mxCell id="page_root_X4m" parent="X4m"/>
        <mxCell id="node_root_X4m" parent="page_root_X4m"/>
        <mxCell id="X4m-2" value="green" style="whiteSpace=wrap;html=1;fontColor=#FFFFFF;text;fontSize=89;fontStyle=1;fillColor=none" vertex="1" parent="node_root_X4m">
          <mxGeometry x="200" y="35" width="100" height="50" as="geometry"/>
        </mxCell>
        <mxCell id="X4m-3" value="green" style="whiteSpace=wrap;html=1;fontColor=#FFFFFF;text;fontSize=21;fontStyle=1;fillColor=none" vertex="1" parent="node_root_X4m">
          <mxGeometry x="700" y="35" width="100" height="50" as="geometry"/>
        </mxCell>
        <mxCell id="X4m-4" value="green" style="whiteSpace=wrap;html=1;fontColor=#FFFFFF;text;fontSize=67;fontStyle=1;fillColor=none" vertex="1" parent="node_root_X4m">
          <mxGeometry x="200" y="155" width="100" height="50" as="geometry"/>
        </mxCell>
        <mxCell id="X4m-5" value="green" style="whiteSpace=wrap;html=1;fontColor=#FFFFFF;text;fontSize=28;fontStyle=1;fillColor=none" vertex="1" parent="node_root_X4m">
          <mxGeometry x="700" y="155" width="100" height="50" as="geometry"/>
        </mxCell>
        <mxCell id="X4m-6" value="green" style="whiteSpace=wrap;html=1;fontColor=#FFFFFF;text;fontSize=50;fontStyle=1;fillColor=none" vertex="1" parent="node_root_X4m">
          <mxGeometry x="200" y="275" width="100" height="50" as="geometry"/>
        </mxCell>
        <mxCell id="X4m-7" value="green" style="whiteSpace=wrap;html=1;fontColor=#FFFFFF;text;fontSize=37;fontStyle=1;fillColor=none" vertex="1" parent="node_root_X4m">
          <mxGeometry x="700" y="275" width="100" height="50" as="geometry"/>
        </mxCell>
        <mxCell id="X4m-8" value="green" style="whiteSpace=wrap;html=1;fontColor=#FFFFFF;text;fontSize=16;fontStyle=1;fillColor=none" vertex="1" parent="node_root_X4m">
          <mxGeometry x="200" y="395" width="100" height="50" as="geometry"/>
        </mxCell>
        <mxCell id="X4m-9" value="" style="whiteSpace=wrap;html=1;fillColor=#ffffff;strokeColor=#000000;fontColor=#000000" vertex="1" parent="node_root_X4m">
          <mxGeometry x="705" y="375" width="90" height="90" as="geometry"/>
        </mxCell>
        <mxCell id="X4m-11" value="" style="whiteSpace=wrap;html=1;fillColor=#ffffff;strokeColor=#000000;fontColor=#000000" vertex="1" parent="node_root_X4m">
          <mxGeometry x="25" y="485" width="90" height="90" as="geometry"/>
        </mxCell>
        <mxCell id="X4m-12" value="" style="whiteSpace=wrap;html=1;fillColor=#ffffff;strokeColor=#000000;fontColor=#000000;ellipse" vertex="1" parent="node_root_X4m">
          <mxGeometry x="165" y="485" width="90" height="90" as="geometry"/>
        </mxCell>
        <mxCell id="X4m-13" value="" style="whiteSpace=wrap;html=1;fillColor=#ffffff;strokeColor=#000000;fontColor=#000000;shape=actor" vertex="1" parent="node_root_X4m">
          <mxGeometry x="305" y="485" width="90" height="90" as="geometry"/>
        </mxCell>
        <mxCell id="X4m-14" value="" style="whiteSpace=wrap;html=1;fillColor=#ffffff;strokeColor=#000000;fontColor=#000000;verticalLabelPosition=bottom;verticalAlign=top;shape=mxgraph.basic.tick" vertex="1" parent="node_root_X4m">
          <mxGeometry x="445" y="485" width="90" height="90" as="geometry"/>
        </mxCell>
        <mxCell id="X4m-15" value="" style="whiteSpace=wrap;html=1;fillColor=#ffffff;strokeColor=#000000;fontColor=#000000;verticalLabelPosition=bottom;verticalAlign=top;html=1;shape=mxgraph.basic.x" vertex="1" parent="node_root_X4m">
          <mxGeometry x="585" y="485" width="90" height="90" as="geometry"/>
        </mxCell>
        <mxCell id="X4m-16" value="" style="whiteSpace=wrap;html=1;fillColor=#ffffff;strokeColor=#000000;fontColor=#000000;shape=cloud" vertex="1" parent="node_root_X4m">
          <mxGeometry x="725" y="485" width="90" height="90" as="geometry"/>
        </mxCell>
      </root>
    </mxGraphModel>
  </diagram>
  <diagram id="hen" name="teal">
    <mxGraphModel dx="0" dy="0" background="#008080" grid="0" gridSize="10" guides="1" tooltips="1" connect="1" arrows="1" fold="1" page="1" pageScale="1" pageWidth="1169" pageHeight="827" math="0" shadow="0">
      <root>
        <mxCell id="page_root_hen" parent="hen"/>
        <mxCell id="node_root_hen" parent="page_root_hen"/>
        <mxCell id="hen-2" value="teal" style="whiteSpace=wrap;html=1;fontColor=#FFFFFF;text;fontSize=89;fontStyle=1;fillColor=none" vertex="1" parent="node_root_hen">
          <mxGeometry x="200" y="35" width="100" height="50" as="geometry"/>
        </mxCell>
        <mxCell id="hen-3" value="teal" style="whiteSpace=wrap;html=1;fontColor=#FFFFFF;text;fontSize=21;fontStyle=1;fillColor=none" vertex="1" parent="node_root_hen">
          <mxGeometry x="700" y="35" width="100" height="50" as="geometry"/>
        </mxCell>
        <mxCell id="hen-4" value="teal" style="whiteSpace=wrap;html=1;fontColor=#FFFFFF;text;fontSize=67;fontStyle=1;fillColor=none" vertex="1" parent="node_root_hen">
          <mxGeometry x="200" y="155" width="100" height="50" as="geometry"/>
        </mxCell>
        <mxCell id="hen-5" value="teal" style="whiteSpace=wrap;html=1;fontColor=#FFFFFF;text;fontSize=28;fontStyle=1;fillColor=none" vertex="1" parent="node_root_hen">
          <mxGeometry x="700" y="155" width="100" height="50" as="geometry"/>
        </mxCell>
        <mxCell id="hen-6" value="teal" style="whiteSpace=wrap;html=1;fontColor=#FFFFFF;text;fontSize=50;fontStyle=1;fillColor=none" vertex="1" parent="node_root_hen">
          <mxGeometry x="200" y="275" width="100" height="50" as="geometry"/>
        </mxCell>
        <mxCell id="hen-7" value="teal" style="whiteSpace=wrap;html=1;fontColor=#FFFFFF;text;fontSize=37;fontStyle=1;fillColor=none" vertex="1" parent="node_root_hen">
          <mxGeometry x="700" y="275" width="100" height="50" as="geometry"/>
        </mxCell>
        <mxCell id="hen-8" value="teal" style="whiteSpace=wrap;html=1;fontColor=#FFFFFF;text;fontSize=16;fontStyle=1;fillColor=none" vertex="1" parent="node_root_hen">
          <mxGeometry x="200" y="395" width="100" height="50" as="geometry"/>
        </mxCell>
        <mxCell id="hen-9" value="" style="whiteSpace=wrap;html=1;fillColor=#ffffff;strokeColor=#000000;fontColor=#000000" vertex="1" parent="node_root_hen">
          <mxGeometry x="705" y="375" width="90" height="90" as="geometry"/>
        </mxCell>
        <mxCell id="hen-11" value="" style="whiteSpace=wrap;html=1;fillColor=#ffffff;strokeColor=#000000;fontColor=#000000" vertex="1" parent="node_root_hen">
          <mxGeometry x="25" y="485" width="90" height="90" as="geometry"/>
        </mxCell>
        <mxCell id="hen-12" value="" style="whiteSpace=wrap;html=1;fillColor=#ffffff;strokeColor=#000000;fontColor=#000000;ellipse" vertex="1" parent="node_root_hen">
          <mxGeometry x="165" y="485" width="90" height="90" as="geometry"/>
        </mxCell>
        <mxCell id="hen-13" value="" style="whiteSpace=wrap;html=1;fillColor=#ffffff;strokeColor=#000000;fontColor=#000000;shape=actor" vertex="1" parent="node_root_hen">
          <mxGeometry x="305" y="485" width="90" height="90" as="geometry"/>
        </mxCell>
        <mxCell id="hen-14" value="" style="whiteSpace=wrap;html=1;fillColor=#ffffff;strokeColor=#000000;fontColor=#000000;verticalLabelPosition=bottom;verticalAlign=top;shape=mxgraph.basic.tick" vertex="1" parent="node_root_hen">
          <mxGeometry x="445" y="485" width="90" height="90" as="geometry"/>
        </mxCell>
        <mxCell id="hen-15" value="" style="whiteSpace=wrap;html=1;fillColor=#ffffff;strokeColor=#000000;fontColor=#000000;verticalLabelPosition=bottom;verticalAlign=top;html=1;shape=mxgraph.basic.x" vertex="1" parent="node_root_hen">
          <mxGeometry x="585" y="485" width="90" height="90" as="geometry"/>
        </mxCell>
        <mxCell id="hen-16" value="" style="whiteSpace=wrap;html=1;fillColor=#ffffff;strokeColor=#000000;fontColor=#000000;shape=cloud" vertex="1" parent="node_root_hen">
          <mxGeometry x="725" y="485" width="90" height="90" as="geometry"/>
        </mxCell>
      </root>
    </mxGraphModel>
  </diagram>
  <diagram id="5iY" name="dark_cyan">
    <mxGraphModel dx="0" dy="0" background="#008B8B" grid="0" gridSize="10" guides="1" tooltips="1" connect="1" arrows="1" fold="1" page="1" pageScale="1" pageWidth="1169" pageHeight="827" math="0" shadow="0">
      <root>
        <mxCell id="page_root_5iY" parent="5iY"/>
        <mxCell id="node_root_5iY" parent="page_root_5iY"/>
        <mxCell id="5iY-2" value="dark_cyan" style="whiteSpace=wrap;html=1;fontColor=#FFFFFF;text;fontSize=89;fontStyle=1;fillColor=none" vertex="1" parent="node_root_5iY">
          <mxGeometry x="200" y="35" width="100" height="50" as="geometry"/>
        </mxCell>
        <mxCell id="5iY-3" value="dark_cyan" style="whiteSpace=wrap;html=1;fontColor=#FFFFFF;text;fontSize=21;fontStyle=1;fillColor=none" vertex="1" parent="node_root_5iY">
          <mxGeometry x="700" y="35" width="100" height="50" as="geometry"/>
        </mxCell>
        <mxCell id="5iY-4" value="dark_cyan" style="whiteSpace=wrap;html=1;fontColor=#FFFFFF;text;fontSize=67;fontStyle=1;fillColor=none" vertex="1" parent="node_root_5iY">
          <mxGeometry x="200" y="155" width="100" height="50" as="geometry"/>
        </mxCell>
        <mxCell id="5iY-5" value="dark_cyan" style="whiteSpace=wrap;html=1;fontColor=#FFFFFF;text;fontSize=28;fontStyle=1;fillColor=none" vertex="1" parent="node_root_5iY">
          <mxGeometry x="700" y="155" width="100" height="50" as="geometry"/>
        </mxCell>
        <mxCell id="5iY-6" value="dark_cyan" style="whiteSpace=wrap;html=1;fontColor=#FFFFFF;text;fontSize=50;fontStyle=1;fillColor=none" vertex="1" parent="node_root_5iY">
          <mxGeometry x="200" y="275" width="100" height="50" as="geometry"/>
        </mxCell>
        <mxCell id="5iY-7" value="dark_cyan" style="whiteSpace=wrap;html=1;fontColor=#FFFFFF;text;fontSize=37;fontStyle=1;fillColor=none" vertex="1" parent="node_root_5iY">
          <mxGeometry x="700" y="275" width="100" height="50" as="geometry"/>
        </mxCell>
        <mxCell id="5iY-8" value="dark_cyan" style="whiteSpace=wrap;html=1;fontColor=#FFFFFF;text;fontSize=16;fontStyle=1;fillColor=none" vertex="1" parent="node_root_5iY">
          <mxGeometry x="200" y="395" width="100" height="50" as="geometry"/>
        </mxCell>
        <mxCell id="5iY-9" value="" style="whiteSpace=wrap;html=1;fillColor=#ffffff;strokeColor=#000000;fontColor=#000000" vertex="1" parent="node_root_5iY">
          <mxGeometry x="705" y="375" width="90" height="90" as="geometry"/>
        </mxCell>
        <mxCell id="5iY-11" value="" style="whiteSpace=wrap;html=1;fillColor=#ffffff;strokeColor=#000000;fontColor=#000000" vertex="1" parent="node_root_5iY">
          <mxGeometry x="25" y="485" width="90" height="90" as="geometry"/>
        </mxCell>
        <mxCell id="5iY-12" value="" style="whiteSpace=wrap;html=1;fillColor=#ffffff;strokeColor=#000000;fontColor=#000000;ellipse" vertex="1" parent="node_root_5iY">
          <mxGeometry x="165" y="485" width="90" height="90" as="geometry"/>
        </mxCell>
        <mxCell id="5iY-13" value="" style="whiteSpace=wrap;html=1;fillColor=#ffffff;strokeColor=#000000;fontColor=#000000;shape=actor" vertex="1" parent="node_root_5iY">
          <mxGeometry x="305" y="485" width="90" height="90" as="geometry"/>
        </mxCell>
        <mxCell id="5iY-14" value="" style="whiteSpace=wrap;html=1;fillColor=#ffffff;strokeColor=#000000;fontColor=#000000;verticalLabelPosition=bottom;verticalAlign=top;shape=mxgraph.basic.tick" vertex="1" parent="node_root_5iY">
          <mxGeometry x="445" y="485" width="90" height="90" as="geometry"/>
        </mxCell>
        <mxCell id="5iY-15" value="" style="whiteSpace=wrap;html=1;fillColor=#ffffff;strokeColor=#000000;fontColor=#000000;verticalLabelPosition=bottom;verticalAlign=top;html=1;shape=mxgraph.basic.x" vertex="1" parent="node_root_5iY">
          <mxGeometry x="585" y="485" width="90" height="90" as="geometry"/>
        </mxCell>
        <mxCell id="5iY-16" value="" style="whiteSpace=wrap;html=1;fillColor=#ffffff;strokeColor=#000000;fontColor=#000000;shape=cloud" vertex="1" parent="node_root_5iY">
          <mxGeometry x="725" y="485" width="90" height="90" as="geometry"/>
        </mxCell>
      </root>
    </mxGraphModel>
  </diagram>
  <diagram id="p7W" name="deep_sky_blue">
    <mxGraphModel dx="0" dy="0" background="#00BFFF" grid="0" gridSize="10" guides="1" tooltips="1" connect="1" arrows="1" fold="1" page="1" pageScale="1" pageWidth="1169" pageHeight="827" math="0" shadow="0">
      <root>
        <mxCell id="page_root_p7W" parent="p7W"/>
        <mxCell id="node_root_p7W" parent="page_root_p7W"/>
        <mxCell id="p7W-2" value="deep_sky_blue" style="whiteSpace=wrap;html=1;fontColor=#FFFFFF;text;fontSize=89;fontStyle=1;fillColor=none" vertex="1" parent="node_root_p7W">
          <mxGeometry x="200" y="35" width="100" height="50" as="geometry"/>
        </mxCell>
        <mxCell id="p7W-3" value="deep_sky_blue" style="whiteSpace=wrap;html=1;fontColor=#FFFFFF;text;fontSize=21;fontStyle=1;fillColor=none" vertex="1" parent="node_root_p7W">
          <mxGeometry x="700" y="35" width="100" height="50" as="geometry"/>
        </mxCell>
        <mxCell id="p7W-4" value="deep_sky_blue" style="whiteSpace=wrap;html=1;fontColor=#FFFFFF;text;fontSize=67;fontStyle=1;fillColor=none" vertex="1" parent="node_root_p7W">
          <mxGeometry x="200" y="155" width="100" height="50" as="geometry"/>
        </mxCell>
        <mxCell id="p7W-5" value="deep_sky_blue" style="whiteSpace=wrap;html=1;fontColor=#FFFFFF;text;fontSize=28;fontStyle=1;fillColor=none" vertex="1" parent="node_root_p7W">
          <mxGeometry x="700" y="155" width="100" height="50" as="geometry"/>
        </mxCell>
        <mxCell id="p7W-6" value="deep_sky_blue" style="whiteSpace=wrap;html=1;fontColor=#FFFFFF;text;fontSize=50;fontStyle=1;fillColor=none" vertex="1" parent="node_root_p7W">
          <mxGeometry x="200" y="275" width="100" height="50" as="geometry"/>
        </mxCell>
        <mxCell id="p7W-7" value="deep_sky_blue" style="whiteSpace=wrap;html=1;fontColor=#FFFFFF;text;fontSize=37;fontStyle=1;fillColor=none" vertex="1" parent="node_root_p7W">
          <mxGeometry x="700" y="275" width="100" height="50" as="geometry"/>
        </mxCell>
        <mxCell id="p7W-8" value="deep_sky_blue" style="whiteSpace=wrap;html=1;fontColor=#FFFFFF;text;fontSize=16;fontStyle=1;fillColor=none" vertex="1" parent="node_root_p7W">
          <mxGeometry x="200" y="395" width="100" height="50" as="geometry"/>
        </mxCell>
        <mxCell id="p7W-9" value="" style="whiteSpace=wrap;html=1;fillColor=#ffffff;strokeColor=#000000;fontColor=#000000" vertex="1" parent="node_root_p7W">
          <mxGeometry x="705" y="375" width="90" height="90" as="geometry"/>
        </mxCell>
        <mxCell id="p7W-11" value="" style="whiteSpace=wrap;html=1;fillColor=#ffffff;strokeColor=#000000;fontColor=#000000" vertex="1" parent="node_root_p7W">
          <mxGeometry x="25" y="485" width="90" height="90" as="geometry"/>
        </mxCell>
        <mxCell id="p7W-12" value="" style="whiteSpace=wrap;html=1;fillColor=#ffffff;strokeColor=#000000;fontColor=#000000;ellipse" vertex="1" parent="node_root_p7W">
          <mxGeometry x="165" y="485" width="90" height="90" as="geometry"/>
        </mxCell>
        <mxCell id="p7W-13" value="" style="whiteSpace=wrap;html=1;fillColor=#ffffff;strokeColor=#000000;fontColor=#000000;shape=actor" vertex="1" parent="node_root_p7W">
          <mxGeometry x="305" y="485" width="90" height="90" as="geometry"/>
        </mxCell>
        <mxCell id="p7W-14" value="" style="whiteSpace=wrap;html=1;fillColor=#ffffff;strokeColor=#000000;fontColor=#000000;verticalLabelPosition=bottom;verticalAlign=top;shape=mxgraph.basic.tick" vertex="1" parent="node_root_p7W">
          <mxGeometry x="445" y="485" width="90" height="90" as="geometry"/>
        </mxCell>
        <mxCell id="p7W-15" value="" style="whiteSpace=wrap;html=1;fillColor=#ffffff;strokeColor=#000000;fontColor=#000000;verticalLabelPosition=bottom;verticalAlign=top;html=1;shape=mxgraph.basic.x" vertex="1" parent="node_root_p7W">
          <mxGeometry x="585" y="485" width="90" height="90" as="geometry"/>
        </mxCell>
        <mxCell id="p7W-16" value="" style="whiteSpace=wrap;html=1;fillColor=#ffffff;strokeColor=#000000;fontColor=#000000;shape=cloud" vertex="1" parent="node_root_p7W">
          <mxGeometry x="725" y="485" width="90" height="90" as="geometry"/>
        </mxCell>
      </root>
    </mxGraphModel>
  </diagram>
  <diagram id="Fge" name="dark_turquoise">
    <mxGraphModel dx="0" dy="0" background="#00CED1" grid="0" gridSize="10" guides="1" tooltips="1" connect="1" arrows="1" fold="1" page="1" pageScale="1" pageWidth="1169" pageHeight="827" math="0" shadow="0">
      <root>
        <mxCell id="page_root_Fge" parent="Fge"/>
        <mxCell id="node_root_Fge" parent="page_root_Fge"/>
        <mxCell id="Fge-2" value="dark_turquoise" style="whiteSpace=wrap;html=1;fontColor=#FFFFFF;text;fontSize=89;fontStyle=1;fillColor=none" vertex="1" parent="node_root_Fge">
          <mxGeometry x="200" y="35" width="100" height="50" as="geometry"/>
        </mxCell>
        <mxCell id="Fge-3" value="dark_turquoise" style="whiteSpace=wrap;html=1;fontColor=#FFFFFF;text;fontSize=21;fontStyle=1;fillColor=none" vertex="1" parent="node_root_Fge">
          <mxGeometry x="700" y="35" width="100" height="50" as="geometry"/>
        </mxCell>
        <mxCell id="Fge-4" value="dark_turquoise" style="whiteSpace=wrap;html=1;fontColor=#FFFFFF;text;fontSize=67;fontStyle=1;fillColor=none" vertex="1" parent="node_root_Fge">
          <mxGeometry x="200" y="155" width="100" height="50" as="geometry"/>
        </mxCell>
        <mxCell id="Fge-5" value="dark_turquoise" style="whiteSpace=wrap;html=1;fontColor=#FFFFFF;text;fontSize=28;fontStyle=1;fillColor=none" vertex="1" parent="node_root_Fge">
          <mxGeometry x="700" y="155" width="100" height="50" as="geometry"/>
        </mxCell>
        <mxCell id="Fge-6" value="dark_turquoise" style="whiteSpace=wrap;html=1;fontColor=#FFFFFF;text;fontSize=50;fontStyle=1;fillColor=none" vertex="1" parent="node_root_Fge">
          <mxGeometry x="200" y="275" width="100" height="50" as="geometry"/>
        </mxCell>
        <mxCell id="Fge-7" value="dark_turquoise" style="whiteSpace=wrap;html=1;fontColor=#FFFFFF;text;fontSize=37;fontStyle=1;fillColor=none" vertex="1" parent="node_root_Fge">
          <mxGeometry x="700" y="275" width="100" height="50" as="geometry"/>
        </mxCell>
        <mxCell id="Fge-8" value="dark_turquoise" style="whiteSpace=wrap;html=1;fontColor=#FFFFFF;text;fontSize=16;fontStyle=1;fillColor=none" vertex="1" parent="node_root_Fge">
          <mxGeometry x="200" y="395" width="100" height="50" as="geometry"/>
        </mxCell>
        <mxCell id="Fge-9" value="" style="whiteSpace=wrap;html=1;fillColor=#ffffff;strokeColor=#000000;fontColor=#000000" vertex="1" parent="node_root_Fge">
          <mxGeometry x="705" y="375" width="90" height="90" as="geometry"/>
        </mxCell>
        <mxCell id="Fge-11" value="" style="whiteSpace=wrap;html=1;fillColor=#ffffff;strokeColor=#000000;fontColor=#000000" vertex="1" parent="node_root_Fge">
          <mxGeometry x="25" y="485" width="90" height="90" as="geometry"/>
        </mxCell>
        <mxCell id="Fge-12" value="" style="whiteSpace=wrap;html=1;fillColor=#ffffff;strokeColor=#000000;fontColor=#000000;ellipse" vertex="1" parent="node_root_Fge">
          <mxGeometry x="165" y="485" width="90" height="90" as="geometry"/>
        </mxCell>
        <mxCell id="Fge-13" value="" style="whiteSpace=wrap;html=1;fillColor=#ffffff;strokeColor=#000000;fontColor=#000000;shape=actor" vertex="1" parent="node_root_Fge">
          <mxGeometry x="305" y="485" width="90" height="90" as="geometry"/>
        </mxCell>
        <mxCell id="Fge-14" value="" style="whiteSpace=wrap;html=1;fillColor=#ffffff;strokeColor=#000000;fontColor=#000000;verticalLabelPosition=bottom;verticalAlign=top;shape=mxgraph.basic.tick" vertex="1" parent="node_root_Fge">
          <mxGeometry x="445" y="485" width="90" height="90" as="geometry"/>
        </mxCell>
        <mxCell id="Fge-15" value="" style="whiteSpace=wrap;html=1;fillColor=#ffffff;strokeColor=#000000;fontColor=#000000;verticalLabelPosition=bottom;verticalAlign=top;html=1;shape=mxgraph.basic.x" vertex="1" parent="node_root_Fge">
          <mxGeometry x="585" y="485" width="90" height="90" as="geometry"/>
        </mxCell>
        <mxCell id="Fge-16" value="" style="whiteSpace=wrap;html=1;fillColor=#ffffff;strokeColor=#000000;fontColor=#000000;shape=cloud" vertex="1" parent="node_root_Fge">
          <mxGeometry x="725" y="485" width="90" height="90" as="geometry"/>
        </mxCell>
      </root>
    </mxGraphModel>
  </diagram>
  <diagram id="9Hn" name="medium_spring_green">
    <mxGraphModel dx="0" dy="0" background="#00FA9A" grid="0" gridSize="10" guides="1" tooltips="1" connect="1" arrows="1" fold="1" page="1" pageScale="1" pageWidth="1169" pageHeight="827" math="0" shadow="0">
      <root>
        <mxCell id="page_root_9Hn" parent="9Hn"/>
        <mxCell id="node_root_9Hn" parent="page_root_9Hn"/>
        <mxCell id="9Hn-2" value="medium_spring_green" style="whiteSpace=wrap;html=1;fontColor=#1F2D3D;text;fontSize=89;fontStyle=1;fillColor=none" vertex="1" parent="node_root_9Hn">
          <mxGeometry x="200" y="35" width="100" height="50" as="geometry"/>
        </mxCell>
        <mxCell id="9Hn-3" value="medium_spring_green" style="whiteSpace=wrap;html=1;fontColor=#1F2D3D;text;fontSize=21;fontStyle=1;fillColor=none" vertex="1" parent="node_root_9Hn">
          <mxGeometry x="700" y="35" width="100" height="50" as="geometry"/>
        </mxCell>
        <mxCell id="9Hn-4" value="medium_spring_green" style="whiteSpace=wrap;html=1;fontColor=#1F2D3D;text;fontSize=67;fontStyle=1;fillColor=none" vertex="1" parent="node_root_9Hn">
          <mxGeometry x="200" y="155" width="100" height="50" as="geometry"/>
        </mxCell>
        <mxCell id="9Hn-5" value="medium_spring_green" style="whiteSpace=wrap;html=1;fontColor=#1F2D3D;text;fontSize=28;fontStyle=1;fillColor=none" vertex="1" parent="node_root_9Hn">
          <mxGeometry x="700" y="155" width="100" height="50" as="geometry"/>
        </mxCell>
        <mxCell id="9Hn-6" value="medium_spring_green" style="whiteSpace=wrap;html=1;fontColor=#1F2D3D;text;fontSize=50;fontStyle=1;fillColor=none" vertex="1" parent="node_root_9Hn">
          <mxGeometry x="200" y="275" width="100" height="50" as="geometry"/>
        </mxCell>
        <mxCell id="9Hn-7" value="medium_spring_green" style="whiteSpace=wrap;html=1;fontColor=#1F2D3D;text;fontSize=37;fontStyle=1;fillColor=none" vertex="1" parent="node_root_9Hn">
          <mxGeometry x="700" y="275" width="100" height="50" as="geometry"/>
        </mxCell>
        <mxCell id="9Hn-8" value="medium_spring_green" style="whiteSpace=wrap;html=1;fontColor=#1F2D3D;text;fontSize=16;fontStyle=1;fillColor=none" vertex="1" parent="node_root_9Hn">
          <mxGeometry x="200" y="395" width="100" height="50" as="geometry"/>
        </mxCell>
        <mxCell id="9Hn-9" value="" style="whiteSpace=wrap;html=1;fillColor=#ffffff;strokeColor=#000000;fontColor=#000000" vertex="1" parent="node_root_9Hn">
          <mxGeometry x="705" y="375" width="90" height="90" as="geometry"/>
        </mxCell>
        <mxCell id="9Hn-11" value="" style="whiteSpace=wrap;html=1;fillColor=#ffffff;strokeColor=#000000;fontColor=#000000" vertex="1" parent="node_root_9Hn">
          <mxGeometry x="25" y="485" width="90" height="90" as="geometry"/>
        </mxCell>
        <mxCell id="9Hn-12" value="" style="whiteSpace=wrap;html=1;fillColor=#ffffff;strokeColor=#000000;fontColor=#000000;ellipse" vertex="1" parent="node_root_9Hn">
          <mxGeometry x="165" y="485" width="90" height="90" as="geometry"/>
        </mxCell>
        <mxCell id="9Hn-13" value="" style="whiteSpace=wrap;html=1;fillColor=#ffffff;strokeColor=#000000;fontColor=#000000;shape=actor" vertex="1" parent="node_root_9Hn">
          <mxGeometry x="305" y="485" width="90" height="90" as="geometry"/>
        </mxCell>
        <mxCell id="9Hn-14" value="" style="whiteSpace=wrap;html=1;fillColor=#ffffff;strokeColor=#000000;fontColor=#000000;verticalLabelPosition=bottom;verticalAlign=top;shape=mxgraph.basic.tick" vertex="1" parent="node_root_9Hn">
          <mxGeometry x="445" y="485" width="90" height="90" as="geometry"/>
        </mxCell>
        <mxCell id="9Hn-15" value="" style="whiteSpace=wrap;html=1;fillColor=#ffffff;strokeColor=#000000;fontColor=#000000;verticalLabelPosition=bottom;verticalAlign=top;html=1;shape=mxgraph.basic.x" vertex="1" parent="node_root_9Hn">
          <mxGeometry x="585" y="485" width="90" height="90" as="geometry"/>
        </mxCell>
        <mxCell id="9Hn-16" value="" style="whiteSpace=wrap;html=1;fillColor=#ffffff;strokeColor=#000000;fontColor=#000000;shape=cloud" vertex="1" parent="node_root_9Hn">
          <mxGeometry x="725" y="485" width="90" height="90" as="geometry"/>
        </mxCell>
      </root>
    </mxGraphModel>
  </diagram>
  <diagram id="XIB" name="lime">
    <mxGraphModel dx="0" dy="0" background="#00FF00" grid="0" gridSize="10" guides="1" tooltips="1" connect="1" arrows="1" fold="1" page="1" pageScale="1" pageWidth="1169" pageHeight="827" math="0" shadow="0">
      <root>
        <mxCell id="page_root_XIB" parent="XIB"/>
        <mxCell id="node_root_XIB" parent="page_root_XIB"/>
        <mxCell id="XIB-2" value="lime" style="whiteSpace=wrap;html=1;fontColor=#FFFFFF;text;fontSize=89;fontStyle=1;fillColor=none" vertex="1" parent="node_root_XIB">
          <mxGeometry x="200" y="35" width="100" height="50" as="geometry"/>
        </mxCell>
        <mxCell id="XIB-3" value="lime" style="whiteSpace=wrap;html=1;fontColor=#FFFFFF;text;fontSize=21;fontStyle=1;fillColor=none" vertex="1" parent="node_root_XIB">
          <mxGeometry x="700" y="35" width="100" height="50" as="geometry"/>
        </mxCell>
        <mxCell id="XIB-4" value="lime" style="whiteSpace=wrap;html=1;fontColor=#FFFFFF;text;fontSize=67;fontStyle=1;fillColor=none" vertex="1" parent="node_root_XIB">
          <mxGeometry x="200" y="155" width="100" height="50" as="geometry"/>
        </mxCell>
        <mxCell id="XIB-5" value="lime" style="whiteSpace=wrap;html=1;fontColor=#FFFFFF;text;fontSize=28;fontStyle=1;fillColor=none" vertex="1" parent="node_root_XIB">
          <mxGeometry x="700" y="155" width="100" height="50" as="geometry"/>
        </mxCell>
        <mxCell id="XIB-6" value="lime" style="whiteSpace=wrap;html=1;fontColor=#FFFFFF;text;fontSize=50;fontStyle=1;fillColor=none" vertex="1" parent="node_root_XIB">
          <mxGeometry x="200" y="275" width="100" height="50" as="geometry"/>
        </mxCell>
        <mxCell id="XIB-7" value="lime" style="whiteSpace=wrap;html=1;fontColor=#FFFFFF;text;fontSize=37;fontStyle=1;fillColor=none" vertex="1" parent="node_root_XIB">
          <mxGeometry x="700" y="275" width="100" height="50" as="geometry"/>
        </mxCell>
        <mxCell id="XIB-8" value="lime" style="whiteSpace=wrap;html=1;fontColor=#FFFFFF;text;fontSize=16;fontStyle=1;fillColor=none" vertex="1" parent="node_root_XIB">
          <mxGeometry x="200" y="395" width="100" height="50" as="geometry"/>
        </mxCell>
        <mxCell id="XIB-9" value="" style="whiteSpace=wrap;html=1;fillColor=#ffffff;strokeColor=#000000;fontColor=#000000" vertex="1" parent="node_root_XIB">
          <mxGeometry x="705" y="375" width="90" height="90" as="geometry"/>
        </mxCell>
        <mxCell id="XIB-11" value="" style="whiteSpace=wrap;html=1;fillColor=#ffffff;strokeColor=#000000;fontColor=#000000" vertex="1" parent="node_root_XIB">
          <mxGeometry x="25" y="485" width="90" height="90" as="geometry"/>
        </mxCell>
        <mxCell id="XIB-12" value="" style="whiteSpace=wrap;html=1;fillColor=#ffffff;strokeColor=#000000;fontColor=#000000;ellipse" vertex="1" parent="node_root_XIB">
          <mxGeometry x="165" y="485" width="90" height="90" as="geometry"/>
        </mxCell>
        <mxCell id="XIB-13" value="" style="whiteSpace=wrap;html=1;fillColor=#ffffff;strokeColor=#000000;fontColor=#000000;shape=actor" vertex="1" parent="node_root_XIB">
          <mxGeometry x="305" y="485" width="90" height="90" as="geometry"/>
        </mxCell>
        <mxCell id="XIB-14" value="" style="whiteSpace=wrap;html=1;fillColor=#ffffff;strokeColor=#000000;fontColor=#000000;verticalLabelPosition=bottom;verticalAlign=top;shape=mxgraph.basic.tick" vertex="1" parent="node_root_XIB">
          <mxGeometry x="445" y="485" width="90" height="90" as="geometry"/>
        </mxCell>
        <mxCell id="XIB-15" value="" style="whiteSpace=wrap;html=1;fillColor=#ffffff;strokeColor=#000000;fontColor=#000000;verticalLabelPosition=bottom;verticalAlign=top;html=1;shape=mxgraph.basic.x" vertex="1" parent="node_root_XIB">
          <mxGeometry x="585" y="485" width="90" height="90" as="geometry"/>
        </mxCell>
        <mxCell id="XIB-16" value="" style="whiteSpace=wrap;html=1;fillColor=#ffffff;strokeColor=#000000;fontColor=#000000;shape=cloud" vertex="1" parent="node_root_XIB">
          <mxGeometry x="725" y="485" width="90" height="90" as="geometry"/>
        </mxCell>
      </root>
    </mxGraphModel>
  </diagram>
  <diagram id="Gl4" name="spring_green">
    <mxGraphModel dx="0" dy="0" background="#00FF7F" grid="0" gridSize="10" guides="1" tooltips="1" connect="1" arrows="1" fold="1" page="1" pageScale="1" pageWidth="1169" pageHeight="827" math="0" shadow="0">
      <root>
        <mxCell id="page_root_Gl4" parent="Gl4"/>
        <mxCell id="node_root_Gl4" parent="page_root_Gl4"/>
        <mxCell id="Gl4-2" value="spring_green" style="whiteSpace=wrap;html=1;fontColor=#1F2D3D;text;fontSize=89;fontStyle=1;fillColor=none" vertex="1" parent="node_root_Gl4">
          <mxGeometry x="200" y="35" width="100" height="50" as="geometry"/>
        </mxCell>
        <mxCell id="Gl4-3" value="spring_green" style="whiteSpace=wrap;html=1;fontColor=#1F2D3D;text;fontSize=21;fontStyle=1;fillColor=none" vertex="1" parent="node_root_Gl4">
          <mxGeometry x="700" y="35" width="100" height="50" as="geometry"/>
        </mxCell>
        <mxCell id="Gl4-4" value="spring_green" style="whiteSpace=wrap;html=1;fontColor=#1F2D3D;text;fontSize=67;fontStyle=1;fillColor=none" vertex="1" parent="node_root_Gl4">
          <mxGeometry x="200" y="155" width="100" height="50" as="geometry"/>
        </mxCell>
        <mxCell id="Gl4-5" value="spring_green" style="whiteSpace=wrap;html=1;fontColor=#1F2D3D;text;fontSize=28;fontStyle=1;fillColor=none" vertex="1" parent="node_root_Gl4">
          <mxGeometry x="700" y="155" width="100" height="50" as="geometry"/>
        </mxCell>
        <mxCell id="Gl4-6" value="spring_green" style="whiteSpace=wrap;html=1;fontColor=#1F2D3D;text;fontSize=50;fontStyle=1;fillColor=none" vertex="1" parent="node_root_Gl4">
          <mxGeometry x="200" y="275" width="100" height="50" as="geometry"/>
        </mxCell>
        <mxCell id="Gl4-7" value="spring_green" style="whiteSpace=wrap;html=1;fontColor=#1F2D3D;text;fontSize=37;fontStyle=1;fillColor=none" vertex="1" parent="node_root_Gl4">
          <mxGeometry x="700" y="275" width="100" height="50" as="geometry"/>
        </mxCell>
        <mxCell id="Gl4-8" value="spring_green" style="whiteSpace=wrap;html=1;fontColor=#1F2D3D;text;fontSize=16;fontStyle=1;fillColor=none" vertex="1" parent="node_root_Gl4">
          <mxGeometry x="200" y="395" width="100" height="50" as="geometry"/>
        </mxCell>
        <mxCell id="Gl4-9" value="" style="whiteSpace=wrap;html=1;fillColor=#ffffff;strokeColor=#000000;fontColor=#000000" vertex="1" parent="node_root_Gl4">
          <mxGeometry x="705" y="375" width="90" height="90" as="geometry"/>
        </mxCell>
        <mxCell id="Gl4-11" value="" style="whiteSpace=wrap;html=1;fillColor=#ffffff;strokeColor=#000000;fontColor=#000000" vertex="1" parent="node_root_Gl4">
          <mxGeometry x="25" y="485" width="90" height="90" as="geometry"/>
        </mxCell>
        <mxCell id="Gl4-12" value="" style="whiteSpace=wrap;html=1;fillColor=#ffffff;strokeColor=#000000;fontColor=#000000;ellipse" vertex="1" parent="node_root_Gl4">
          <mxGeometry x="165" y="485" width="90" height="90" as="geometry"/>
        </mxCell>
        <mxCell id="Gl4-13" value="" style="whiteSpace=wrap;html=1;fillColor=#ffffff;strokeColor=#000000;fontColor=#000000;shape=actor" vertex="1" parent="node_root_Gl4">
          <mxGeometry x="305" y="485" width="90" height="90" as="geometry"/>
        </mxCell>
        <mxCell id="Gl4-14" value="" style="whiteSpace=wrap;html=1;fillColor=#ffffff;strokeColor=#000000;fontColor=#000000;verticalLabelPosition=bottom;verticalAlign=top;shape=mxgraph.basic.tick" vertex="1" parent="node_root_Gl4">
          <mxGeometry x="445" y="485" width="90" height="90" as="geometry"/>
        </mxCell>
        <mxCell id="Gl4-15" value="" style="whiteSpace=wrap;html=1;fillColor=#ffffff;strokeColor=#000000;fontColor=#000000;verticalLabelPosition=bottom;verticalAlign=top;html=1;shape=mxgraph.basic.x" vertex="1" parent="node_root_Gl4">
          <mxGeometry x="585" y="485" width="90" height="90" as="geometry"/>
        </mxCell>
        <mxCell id="Gl4-16" value="" style="whiteSpace=wrap;html=1;fillColor=#ffffff;strokeColor=#000000;fontColor=#000000;shape=cloud" vertex="1" parent="node_root_Gl4">
          <mxGeometry x="725" y="485" width="90" height="90" as="geometry"/>
        </mxCell>
      </root>
    </mxGraphModel>
  </diagram>
  <diagram id="nKL" name="aqua">
    <mxGraphModel dx="0" dy="0" background="#00FFFF" grid="0" gridSize="10" guides="1" tooltips="1" connect="1" arrows="1" fold="1" page="1" pageScale="1" pageWidth="1169" pageHeight="827" math="0" shadow="0">
      <root>
        <mxCell id="page_root_nKL" parent="nKL"/>
        <mxCell id="node_root_nKL" parent="page_root_nKL"/>
        <mxCell id="nKL-2" value="aqua" style="whiteSpace=wrap;html=1;fontColor=#1F2D3D;text;fontSize=89;fontStyle=1;fillColor=none" vertex="1" parent="node_root_nKL">
          <mxGeometry x="200" y="35" width="100" height="50" as="geometry"/>
        </mxCell>
        <mxCell id="nKL-3" value="aqua" style="whiteSpace=wrap;html=1;fontColor=#1F2D3D;text;fontSize=21;fontStyle=1;fillColor=none" vertex="1" parent="node_root_nKL">
          <mxGeometry x="700" y="35" width="100" height="50" as="geometry"/>
        </mxCell>
        <mxCell id="nKL-4" value="aqua" style="whiteSpace=wrap;html=1;fontColor=#1F2D3D;text;fontSize=67;fontStyle=1;fillColor=none" vertex="1" parent="node_root_nKL">
          <mxGeometry x="200" y="155" width="100" height="50" as="geometry"/>
        </mxCell>
        <mxCell id="nKL-5" value="aqua" style="whiteSpace=wrap;html=1;fontColor=#1F2D3D;text;fontSize=28;fontStyle=1;fillColor=none" vertex="1" parent="node_root_nKL">
          <mxGeometry x="700" y="155" width="100" height="50" as="geometry"/>
        </mxCell>
        <mxCell id="nKL-6" value="aqua" style="whiteSpace=wrap;html=1;fontColor=#1F2D3D;text;fontSize=50;fontStyle=1;fillColor=none" vertex="1" parent="node_root_nKL">
          <mxGeometry x="200" y="275" width="100" height="50" as="geometry"/>
        </mxCell>
        <mxCell id="nKL-7" value="aqua" style="whiteSpace=wrap;html=1;fontColor=#1F2D3D;text;fontSize=37;fontStyle=1;fillColor=none" vertex="1" parent="node_root_nKL">
          <mxGeometry x="700" y="275" width="100" height="50" as="geometry"/>
        </mxCell>
        <mxCell id="nKL-8" value="aqua" style="whiteSpace=wrap;html=1;fontColor=#1F2D3D;text;fontSize=16;fontStyle=1;fillColor=none" vertex="1" parent="node_root_nKL">
          <mxGeometry x="200" y="395" width="100" height="50" as="geometry"/>
        </mxCell>
        <mxCell id="nKL-9" value="" style="whiteSpace=wrap;html=1;fillColor=#ffffff;strokeColor=#000000;fontColor=#000000" vertex="1" parent="node_root_nKL">
          <mxGeometry x="705" y="375" width="90" height="90" as="geometry"/>
        </mxCell>
        <mxCell id="nKL-11" value="" style="whiteSpace=wrap;html=1;fillColor=#ffffff;strokeColor=#000000;fontColor=#000000" vertex="1" parent="node_root_nKL">
          <mxGeometry x="25" y="485" width="90" height="90" as="geometry"/>
        </mxCell>
        <mxCell id="nKL-12" value="" style="whiteSpace=wrap;html=1;fillColor=#ffffff;strokeColor=#000000;fontColor=#000000;ellipse" vertex="1" parent="node_root_nKL">
          <mxGeometry x="165" y="485" width="90" height="90" as="geometry"/>
        </mxCell>
        <mxCell id="nKL-13" value="" style="whiteSpace=wrap;html=1;fillColor=#ffffff;strokeColor=#000000;fontColor=#000000;shape=actor" vertex="1" parent="node_root_nKL">
          <mxGeometry x="305" y="485" width="90" height="90" as="geometry"/>
        </mxCell>
        <mxCell id="nKL-14" value="" style="whiteSpace=wrap;html=1;fillColor=#ffffff;strokeColor=#000000;fontColor=#000000;verticalLabelPosition=bottom;verticalAlign=top;shape=mxgraph.basic.tick" vertex="1" parent="node_root_nKL">
          <mxGeometry x="445" y="485" width="90" height="90" as="geometry"/>
        </mxCell>
        <mxCell id="nKL-15" value="" style="whiteSpace=wrap;html=1;fillColor=#ffffff;strokeColor=#000000;fontColor=#000000;verticalLabelPosition=bottom;verticalAlign=top;html=1;shape=mxgraph.basic.x" vertex="1" parent="node_root_nKL">
          <mxGeometry x="585" y="485" width="90" height="90" as="geometry"/>
        </mxCell>
        <mxCell id="nKL-16" value="" style="whiteSpace=wrap;html=1;fillColor=#ffffff;strokeColor=#000000;fontColor=#000000;shape=cloud" vertex="1" parent="node_root_nKL">
          <mxGeometry x="725" y="485" width="90" height="90" as="geometry"/>
        </mxCell>
      </root>
    </mxGraphModel>
  </diagram>
  <diagram id="0Zk" name="cyan">
    <mxGraphModel dx="0" dy="0" background="#00FFFF" grid="0" gridSize="10" guides="1" tooltips="1" connect="1" arrows="1" fold="1" page="1" pageScale="1" pageWidth="1169" pageHeight="827" math="0" shadow="0">
      <root>
        <mxCell id="page_root_0Zk" parent="0Zk"/>
        <mxCell id="node_root_0Zk" parent="page_root_0Zk"/>
        <mxCell id="0Zk-2" value="cyan" style="whiteSpace=wrap;html=1;fontColor=#1F2D3D;text;fontSize=89;fontStyle=1;fillColor=none" vertex="1" parent="node_root_0Zk">
          <mxGeometry x="200" y="35" width="100" height="50" as="geometry"/>
        </mxCell>
        <mxCell id="0Zk-3" value="cyan" style="whiteSpace=wrap;html=1;fontColor=#1F2D3D;text;fontSize=21;fontStyle=1;fillColor=none" vertex="1" parent="node_root_0Zk">
          <mxGeometry x="700" y="35" width="100" height="50" as="geometry"/>
        </mxCell>
        <mxCell id="0Zk-4" value="cyan" style="whiteSpace=wrap;html=1;fontColor=#1F2D3D;text;fontSize=67;fontStyle=1;fillColor=none" vertex="1" parent="node_root_0Zk">
          <mxGeometry x="200" y="155" width="100" height="50" as="geometry"/>
        </mxCell>
        <mxCell id="0Zk-5" value="cyan" style="whiteSpace=wrap;html=1;fontColor=#1F2D3D;text;fontSize=28;fontStyle=1;fillColor=none" vertex="1" parent="node_root_0Zk">
          <mxGeometry x="700" y="155" width="100" height="50" as="geometry"/>
        </mxCell>
        <mxCell id="0Zk-6" value="cyan" style="whiteSpace=wrap;html=1;fontColor=#1F2D3D;text;fontSize=50;fontStyle=1;fillColor=none" vertex="1" parent="node_root_0Zk">
          <mxGeometry x="200" y="275" width="100" height="50" as="geometry"/>
        </mxCell>
        <mxCell id="0Zk-7" value="cyan" style="whiteSpace=wrap;html=1;fontColor=#1F2D3D;text;fontSize=37;fontStyle=1;fillColor=none" vertex="1" parent="node_root_0Zk">
          <mxGeometry x="700" y="275" width="100" height="50" as="geometry"/>
        </mxCell>
        <mxCell id="0Zk-8" value="cyan" style="whiteSpace=wrap;html=1;fontColor=#1F2D3D;text;fontSize=16;fontStyle=1;fillColor=none" vertex="1" parent="node_root_0Zk">
          <mxGeometry x="200" y="395" width="100" height="50" as="geometry"/>
        </mxCell>
        <mxCell id="0Zk-9" value="" style="whiteSpace=wrap;html=1;fillColor=#ffffff;strokeColor=#000000;fontColor=#000000" vertex="1" parent="node_root_0Zk">
          <mxGeometry x="705" y="375" width="90" height="90" as="geometry"/>
        </mxCell>
        <mxCell id="0Zk-11" value="" style="whiteSpace=wrap;html=1;fillColor=#ffffff;strokeColor=#000000;fontColor=#000000" vertex="1" parent="node_root_0Zk">
          <mxGeometry x="25" y="485" width="90" height="90" as="geometry"/>
        </mxCell>
        <mxCell id="0Zk-12" value="" style="whiteSpace=wrap;html=1;fillColor=#ffffff;strokeColor=#000000;fontColor=#000000;ellipse" vertex="1" parent="node_root_0Zk">
          <mxGeometry x="165" y="485" width="90" height="90" as="geometry"/>
        </mxCell>
        <mxCell id="0Zk-13" value="" style="whiteSpace=wrap;html=1;fillColor=#ffffff;strokeColor=#000000;fontColor=#000000;shape=actor" vertex="1" parent="node_root_0Zk">
          <mxGeometry x="305" y="485" width="90" height="90" as="geometry"/>
        </mxCell>
        <mxCell id="0Zk-14" value="" style="whiteSpace=wrap;html=1;fillColor=#ffffff;strokeColor=#000000;fontColor=#000000;verticalLabelPosition=bottom;verticalAlign=top;shape=mxgraph.basic.tick" vertex="1" parent="node_root_0Zk">
          <mxGeometry x="445" y="485" width="90" height="90" as="geometry"/>
        </mxCell>
        <mxCell id="0Zk-15" value="" style="whiteSpace=wrap;html=1;fillColor=#ffffff;strokeColor=#000000;fontColor=#000000;verticalLabelPosition=bottom;verticalAlign=top;html=1;shape=mxgraph.basic.x" vertex="1" parent="node_root_0Zk">
          <mxGeometry x="585" y="485" width="90" height="90" as="geometry"/>
        </mxCell>
        <mxCell id="0Zk-16" value="" style="whiteSpace=wrap;html=1;fillColor=#ffffff;strokeColor=#000000;fontColor=#000000;shape=cloud" vertex="1" parent="node_root_0Zk">
          <mxGeometry x="725" y="485" width="90" height="90" as="geometry"/>
        </mxCell>
      </root>
    </mxGraphModel>
  </diagram>
</mxfile>